<svg width="28" height="28" viewBox="0 0 28 28" fill="none" xmlns="http://www.w3.org/2000/svg">
<g id="Icon">
<rect id="BG" width="28" height="28" rx="4" fill="#83D187"/>
<g id="Vector">
<path d="M22.7969 19.4414C22.519 19.2482 22.2744 19.0111 22.0728 18.7393C21.5901 18.1908 20.9758 17.5106 19.8348 17.5106C18.6939 17.5106 18.1015 18.1688 17.5968 18.7612C17.0922 19.3536 16.7631 19.7047 16.0171 19.7047C15.2711 19.7047 14.8981 19.2878 14.4374 18.7612C13.9766 18.2346 13.3622 17.5106 12.1994 17.5106C11.0365 17.5106 10.466 18.1688 9.96136 18.7612C9.45673 19.3536 9.12761 19.7047 8.38162 19.7047C7.63564 19.7047 7.26263 19.2878 6.80188 18.7612C6.48867 18.3476 6.0926 18.0038 5.639 17.7519C5.42087 17.6429 5.15566 17.7313 5.0466 17.9494C4.93753 18.1675 5.02593 18.4327 5.24406 18.5418C5.58856 18.7494 5.8932 19.017 6.14363 19.3317C6.64826 19.9241 7.24066 20.5823 8.38162 20.5823C9.52258 20.5823 10.1149 19.9241 10.6196 19.3317C11.1242 18.7393 11.4534 18.3882 12.1994 18.3882C12.9453 18.3882 13.3184 18.8051 13.7791 19.3317C14.2398 19.8583 14.8542 20.5823 16.0171 20.5823C17.18 20.5823 17.7504 19.9241 18.2551 19.3317C18.7597 18.7393 19.0888 18.3882 19.8348 18.3882C20.5808 18.3882 20.9538 18.8051 21.4146 19.3317C21.6703 19.66 21.9735 19.9484 22.3141 20.1874C22.5201 20.3207 22.7952 20.2617 22.9285 20.0557C23.0618 19.8497 23.0029 19.5747 22.7969 19.4414Z" fill="#DDFFDF"/>
<path d="M22.7969 16.1502C22.519 15.9571 22.2744 15.7199 22.0728 15.4481C21.5901 14.8996 20.9758 14.2194 19.8348 14.2194C18.6939 14.2194 18.1015 14.8777 17.5968 15.4701C17.0922 16.0625 16.7631 16.4136 16.0171 16.4136C15.2711 16.4136 14.8981 15.9967 14.4374 15.4701C13.9766 14.9435 13.3622 14.2194 12.1994 14.2194C11.0365 14.2194 10.466 14.8777 9.96136 15.4701C9.45673 16.0625 9.12761 16.4136 8.38162 16.4136C7.63564 16.4136 7.26263 15.9967 6.80188 15.4701C6.48867 15.0564 6.0926 14.7127 5.639 14.4608C5.42087 14.3517 5.15566 14.4401 5.0466 14.6583C4.93753 14.8764 5.02593 15.1416 5.24406 15.2507C5.58856 15.4583 5.8932 15.7258 6.14363 16.0405C6.64826 16.6329 7.24066 17.2912 8.38162 17.2912C9.52258 17.2912 10.1149 16.633 10.6196 16.0405C11.1242 15.4481 11.4534 15.0971 12.1994 15.0971C12.9453 15.0971 13.3184 15.514 13.7791 16.0405C14.2398 16.5671 14.8542 17.2912 16.0171 17.2912C17.18 17.2912 17.7504 16.633 18.2551 16.0405C18.7597 15.4481 19.0888 15.0971 19.8348 15.0971C20.5808 15.0971 20.9538 15.514 21.4146 16.0405C21.6703 16.3689 21.9735 16.6573 22.3141 16.8962C22.5201 17.0295 22.7952 16.9706 22.9285 16.7646C23.0618 16.5586 23.0029 16.2835 22.7969 16.1502Z" fill="#DDFFDF"/>
<path d="M22.7969 12.6396C22.519 12.4464 22.2744 12.2093 22.0728 11.9375C21.5901 11.3889 20.9758 10.7088 19.8348 10.7088C18.6939 10.7088 18.1015 11.367 17.5968 11.9594C17.0922 12.5519 16.7631 12.9029 16.0171 12.9029C15.2711 12.9029 14.8981 12.486 14.4374 11.9594C13.9766 11.4329 13.3622 10.7088 12.1994 10.7088C11.0365 10.7088 10.466 11.367 9.96136 11.9594C9.45673 12.5518 9.12761 12.9029 8.38162 12.9029C7.63564 12.9029 7.26263 12.486 6.80188 11.9594C6.48867 11.5458 6.0926 11.202 5.639 10.9501C5.42087 10.8411 5.15566 10.9295 5.0466 11.1476C4.93753 11.3657 5.02593 11.6309 5.24406 11.74C5.58856 11.9476 5.8932 12.2151 6.14363 12.5299C6.64826 13.1223 7.24066 13.7805 8.38162 13.7805C9.52258 13.7805 10.1149 13.1223 10.6196 12.5299C11.1242 11.9375 11.4534 11.5864 12.1994 11.5864C12.9453 11.5864 13.3184 12.0033 13.7791 12.5299C14.2398 13.0564 14.8542 13.7805 16.0171 13.7805C17.18 13.7805 17.7504 13.1223 18.2551 12.5299C18.7598 11.9374 19.0888 11.5864 19.8348 11.5864C20.5808 11.5864 20.9538 12.0033 21.4146 12.5299C21.6703 12.8582 21.9735 13.1466 22.3141 13.3855C22.5201 13.5188 22.7952 13.4599 22.9285 13.2539C23.0618 13.0479 23.0029 12.7729 22.7969 12.6396Z" fill="#DDFFDF"/>
<path d="M5.24424 8.44895C5.58873 8.65658 5.89338 8.9241 6.1438 9.23882C6.64843 9.83122 7.24083 10.4895 8.3818 10.4895C9.52276 10.4895 10.1151 9.83126 10.6198 9.23882C11.1244 8.64642 11.4535 8.29537 12.1995 8.29537C12.9455 8.29537 13.3185 8.71227 13.7793 9.23882C14.24 9.76541 14.8544 10.4895 16.0173 10.4895C17.1802 10.4895 17.7506 9.83126 18.2553 9.23882C18.7599 8.64642 19.089 8.29537 19.835 8.29537C20.581 8.29537 20.954 8.71227 21.4147 9.23882C21.6705 9.56715 21.9736 9.85554 22.3143 10.0945C22.5203 10.2278 22.7954 10.1689 22.9287 9.96288C23.062 9.75689 23.0031 9.48181 22.797 9.34851C22.5191 9.15537 22.2746 8.91822 22.073 8.64642C21.5902 8.0979 20.9759 7.41772 19.835 7.41772C18.694 7.41772 18.1016 8.07594 17.597 8.66838C17.0923 9.26078 16.7632 9.61183 16.0172 9.61183C15.2712 9.61183 14.8982 9.19493 14.4375 8.66838C13.9767 8.14179 13.3624 7.41772 12.1995 7.41772C11.0366 7.41772 10.4662 8.07594 9.96149 8.66838C9.45686 9.26078 9.12774 9.61183 8.38175 9.61183C7.63577 9.61183 7.26284 9.19493 6.80205 8.66834C6.48884 8.25467 6.09278 7.91093 5.63917 7.65904C5.42104 7.54997 5.15583 7.63837 5.04677 7.8565C4.9377 8.07463 5.02615 8.33988 5.24424 8.44895Z" fill="#DDFFDF"/>
</g>
</g>
</svg>
