<svg width="375" height="375" viewBox="0 0 375 375" fill="none" xmlns="http://www.w3.org/2000/svg">
<path d="M187.5 0C229.114 4.96237e-07 269.545 13.8435 302.425 39.3499C335.305 64.8563 358.766 100.576 369.113 140.883C379.459 181.19 376.102 223.794 359.571 261.983C343.041 300.172 314.275 331.777 277.806 351.82L234.94 273.822C254.098 263.293 269.21 246.69 277.894 226.628C286.578 206.566 288.341 184.185 282.906 163.011C277.471 141.837 265.146 123.072 247.873 109.673C230.6 96.2737 209.361 89.0013 187.5 89.0013V0Z" fill="#BEF3C0"/>
<path d="M231.413 179.454V184.778H233.261V187.352H231.413V192.15C231.413 192.618 231.529 192.969 231.76 193.203C231.991 193.437 232.337 193.554 232.799 193.554C233.03 193.554 234.127 193.554 234.127 193.554V196.596C234.127 196.596 232.106 196.596 231.817 196.596C230.894 196.596 229.739 196.421 228.93 195.66C228.122 194.9 227.776 193.905 227.776 192.501V187.294H226.101V184.72H227.776V179.454H231.413ZM220.616 196.83C218.941 196.83 217.497 196.245 216.516 195.192C215.476 194.139 215.014 192.735 215.014 191.097V190.687C215.014 188.874 215.476 187.411 216.4 186.241C217.324 185.129 218.652 184.544 220.384 184.544C221.944 184.544 223.214 185.012 224.08 185.948C225.004 186.943 225.408 188.23 225.408 189.868V191.799H218.768V191.857C218.825 192.501 219.114 192.911 219.518 193.32C219.922 193.73 220.5 193.905 221.135 193.905C221.828 193.905 222.348 193.847 222.752 193.73C223.156 193.613 223.733 193.437 224.311 193.145L225.177 195.426C224.657 195.836 224.022 196.128 223.214 196.421C222.406 196.713 221.482 196.83 220.616 196.83ZM220.327 187.352C219.807 187.352 219.403 187.528 219.172 187.938C218.941 188.347 218.768 188.874 218.71 189.459L218.768 189.517H221.886V189.225C221.886 188.581 221.77 188.172 221.539 187.879C221.193 187.47 220.846 187.352 220.327 187.352ZM208.432 196.83C206.757 196.83 205.313 196.245 204.332 195.192C203.351 194.139 202.831 192.735 202.831 191.097V190.687C202.831 188.874 203.293 187.411 204.216 186.241C205.14 185.129 206.469 184.544 208.201 184.544C209.76 184.544 211.03 185.012 211.896 185.948C212.762 186.884 213.224 188.23 213.224 189.868V191.799H206.584V191.857C206.642 192.501 206.93 192.911 207.335 193.32C207.739 193.73 208.316 193.905 208.951 193.905C209.644 193.905 210.164 193.847 210.568 193.73C210.973 193.613 211.55 193.437 212.127 193.145L212.994 195.426C212.474 195.836 211.838 196.128 211.03 196.421C210.28 196.713 209.356 196.83 208.432 196.83ZM208.201 187.352C207.681 187.352 207.277 187.528 207.046 187.938C206.815 188.347 206.642 188.874 206.584 189.459L206.642 189.517H209.76V189.225C209.76 188.581 209.644 188.172 209.413 187.879C209.067 187.47 208.721 187.352 208.201 187.352ZM197.403 191.565L198.673 184.661H201.964L199.308 196.538H196.248L194.343 190.219H194.285L192.38 196.538H189.319L186.605 184.72H189.954L191.224 191.682H191.282L193.13 184.72H195.44L197.403 191.565ZM182.101 193.203C182.101 192.911 181.928 192.618 181.582 192.384C181.235 192.15 180.658 191.916 179.791 191.74C178.463 191.448 177.424 191.038 176.731 190.512C176.038 189.927 175.692 189.166 175.692 188.172C175.692 187.118 176.154 186.241 176.962 185.48C177.828 184.72 178.983 184.427 180.427 184.427C181.928 184.427 183.198 184.778 184.064 185.48C184.988 186.182 185.393 187.06 185.335 188.23V188.289H181.87C181.87 187.821 181.755 187.469 181.524 187.235C181.293 187.001 180.888 186.884 180.427 186.884C180.023 186.884 179.734 187.001 179.445 187.235C179.156 187.469 179.041 187.704 179.041 188.055C179.041 188.406 179.214 188.64 179.503 188.874C179.791 189.108 180.427 189.283 181.293 189.459C182.679 189.751 183.776 190.161 184.411 190.687C185.104 191.272 185.45 192.033 185.45 193.086C185.45 194.139 184.988 195.017 184.064 195.719C183.141 196.421 181.928 196.772 180.427 196.772C178.868 196.772 177.597 196.362 176.673 195.543C175.75 194.724 175.345 193.847 175.403 192.794V192.735H178.694C178.694 193.32 178.868 193.73 179.214 193.905C179.561 194.081 180.023 194.315 180.542 194.315C181.062 194.315 181.408 194.198 181.639 194.022C181.986 193.847 182.101 193.554 182.101 193.203ZM166.395 184.661L166.511 186.299C166.915 185.714 167.377 185.246 167.897 184.954C168.474 184.603 169.051 184.427 169.744 184.427C170.841 184.427 171.765 184.837 172.4 185.539C173.036 186.241 173.382 187.469 173.382 189.108V196.538H169.86V189.166C169.86 188.464 169.744 188.055 169.456 187.762C169.167 187.469 168.763 187.352 168.243 187.352C167.897 187.352 167.608 187.411 167.319 187.528C167.03 187.645 166.799 187.821 166.626 188.055V196.596H163.046V184.72H166.395V184.661ZM160.852 182.438H157.214V179.454H160.852V182.438ZM160.852 196.596H157.214V184.72H160.852V196.596ZM149.246 196.596V187.235H147.571V184.661H149.246V183.433C149.246 182.087 149.65 181.034 150.401 180.273C151.209 179.513 152.422 179.337 153.288 179.337C153.576 179.337 155.597 179.337 155.597 179.337V182.321C155.597 182.321 154.5 182.321 154.269 182.321C153.807 182.321 153.461 182.438 153.23 182.672C152.999 182.906 152.883 183.257 152.883 183.725V184.603H155.135V187.177H152.883V196.479H149.246V196.596ZM142.317 180.449C142.317 176.88 144.164 176.587 147.282 176.587V179.396C145.839 179.396 145.261 179.63 145.261 180.507V185.129C145.261 186.182 145.319 187.294 144.453 187.996C145.319 188.698 145.261 189.751 145.261 190.863V195.485C145.261 196.421 145.839 196.596 147.282 196.596V199.405C144.164 199.405 142.317 199.112 142.317 195.543V190.863C142.317 190.102 142.317 189.283 140.873 189.283V188.055V186.826C142.317 186.826 142.317 185.948 142.317 185.246V180.449Z" fill="white"/>
<path d="M277.822 351.811C245.324 369.675 208.259 377.501 171.313 374.3C134.368 371.099 99.2013 357.013 70.2608 333.826C41.3203 310.638 19.9057 279.389 8.72493 244.031C-2.45579 208.672 -2.90046 170.793 7.44716 135.181L92.9135 160.016C87.4776 178.723 87.7112 198.622 93.5848 217.197C99.4583 235.772 110.708 252.188 125.911 264.369C141.114 276.55 159.588 283.949 178.997 285.631C198.405 287.313 217.877 283.201 234.948 273.817L277.822 351.811Z" fill="#AC94F1"/>
<path d="M7.33821 135.558C17.2778 101.082 36.9003 70.1827 63.8768 46.5264L122.557 113.443C108.386 125.87 98.0778 142.103 92.8563 160.213L7.33821 135.558Z" fill="#FFF0CA"/>
<path d="M62.9118 47.3785C88.673 24.4731 120.25 9.11274 154.173 2.9856L169.992 90.5697C152.172 93.7885 135.584 101.858 122.051 113.891L62.9118 47.3785Z" fill="#F9CF64"/>
<path d="M153.259 3.15308C165.951 0.795575 178.853 -0.244845 191.759 0.0483727L189.737 89.0267C182.957 88.8727 176.18 89.4193 169.512 90.6577L153.259 3.15308Z" fill="#F38FBF"/>
</svg>
