<svg width="95" height="24" viewBox="0 0 95 24" fill="none" xmlns="http://www.w3.org/2000/svg">
<path id="Vector" d="M91.4134 3.4541V8.77819H93.2611V11.3525H91.4134V16.15C91.4134 16.6181 91.5286 16.9691 91.7598 17.2031C91.9905 17.4371 92.3373 17.5541 92.7992 17.5541C93.03 17.5541 94.127 17.5541 94.127 17.5541V20.5965C94.127 20.5965 92.1061 20.5965 91.8174 20.5965C90.8935 20.5965 89.7389 20.421 88.9302 19.6604C88.1219 18.8998 87.7756 17.9052 87.7756 16.501V11.294H86.1011V8.71967H87.7756V3.4541H91.4134ZM80.6155 20.8305C78.941 20.8305 77.4972 20.2455 76.5157 19.1923C75.4763 18.1392 75.0144 16.735 75.0144 15.0969V14.6873C75.0144 12.8736 75.4763 11.411 76.4002 10.2409C77.324 9.12924 78.6522 8.54417 80.3844 8.54417C81.9437 8.54417 83.2139 9.01221 84.0802 9.94832C85.004 10.9429 85.408 12.2301 85.408 13.8683V15.7989H78.7678V15.8574C78.8254 16.501 79.1141 16.9106 79.5185 17.3201C79.9224 17.7297 80.4999 17.9052 81.135 17.9052C81.8281 17.9052 82.3476 17.8467 82.752 17.7297C83.1559 17.6126 83.7334 17.4371 84.3109 17.1446L85.1772 19.4263C84.6573 19.8359 84.0222 20.1284 83.2139 20.421C82.4056 20.7135 81.4818 20.8305 80.6155 20.8305ZM80.3268 11.3525C79.8072 11.3525 79.4029 11.528 79.1717 11.9375C78.941 12.3471 78.7678 12.8736 78.7098 13.4587L78.7678 13.5172H81.8857V13.2247C81.8857 12.5811 81.7701 12.1716 81.5394 11.879C81.193 11.4695 80.8463 11.3525 80.3268 11.3525ZM68.4318 20.8305C66.7573 20.8305 65.3135 20.2455 64.332 19.1923C63.3506 18.1392 62.8307 16.735 62.8307 15.0969V14.6873C62.8307 12.8736 63.2926 11.411 64.2165 10.2409C65.1403 9.12924 66.4685 8.54417 68.2006 8.54417C69.76 8.54417 71.0302 9.01221 71.8965 9.94832C72.7623 10.8844 73.2243 12.2301 73.2243 13.8683V15.7989H66.5841V15.8574C66.6417 16.501 66.9304 16.9106 67.3348 17.3201C67.7387 17.7297 68.3162 17.9052 68.9513 17.9052C69.6444 17.9052 70.1639 17.8467 70.5683 17.7297C70.9726 17.6126 71.5497 17.4371 72.1272 17.1446L72.9935 19.4263C72.4736 19.8359 71.8385 20.1284 71.0302 20.421C70.2795 20.7135 69.3557 20.8305 68.4318 20.8305ZM68.2006 11.3525C67.6811 11.3525 67.2768 11.528 67.046 11.9375C66.8149 12.3471 66.6417 12.8736 66.5841 13.4587L66.6417 13.5172H69.76V13.2247C69.76 12.5811 69.6444 12.1716 69.4133 11.879C69.0669 11.4695 68.7206 11.3525 68.2006 11.3525ZM57.4031 15.5649L58.6733 8.6612H61.9644L59.3084 20.5379H56.2481L54.3428 14.2193H54.2848L52.3795 20.5379H49.3192L46.6052 8.71967H49.9543L51.2245 15.6819H51.2821L53.1302 8.71967H55.4398L57.4031 15.5649ZM42.1011 17.2031C42.1011 16.9105 41.9279 16.6181 41.5816 16.384C41.2352 16.15 40.6577 15.916 39.7915 15.7404C38.4634 15.4479 37.424 15.0384 36.7311 14.5118C36.0382 13.9268 35.6918 13.1662 35.6918 12.1716C35.6918 11.1185 36.1537 10.2409 36.9621 9.48029C37.8282 8.71967 38.9832 8.42714 40.4266 8.42714C41.9279 8.42714 43.1981 8.77819 44.0644 9.48029C44.9883 10.1823 45.3926 11.0599 45.3346 12.23V12.2886H41.8703C41.8703 11.8205 41.7548 11.4695 41.5236 11.2354C41.2928 11.0014 40.8885 10.8844 40.4266 10.8844C40.0226 10.8844 39.7339 11.0014 39.4451 11.2354C39.1564 11.4695 39.0408 11.7035 39.0408 12.0545C39.0408 12.4056 39.2139 12.6396 39.5027 12.8736C39.7915 13.1076 40.4266 13.2832 41.2928 13.4587C42.6786 13.7512 43.7756 14.1608 44.4107 14.6873C45.1038 15.2724 45.4502 16.033 45.4502 17.0861C45.4502 18.1392 44.9883 19.0168 44.0644 19.7189C43.1405 20.421 41.9279 20.772 40.4266 20.772C38.8676 20.772 37.5973 20.3624 36.6734 19.5434C35.7495 18.7243 35.3453 17.8467 35.4031 16.7936V16.735H38.6944C38.6944 17.3201 38.8676 17.7297 39.214 17.9052C39.5607 18.0807 40.0226 18.3147 40.5421 18.3147C41.0617 18.3147 41.4084 18.1977 41.6392 18.0222C41.9855 17.8467 42.1011 17.5541 42.1011 17.2031ZM26.3952 8.6612L26.5107 10.2994C26.9149 9.71431 27.3769 9.24627 27.8965 8.95373C28.474 8.60268 29.0514 8.42714 29.7443 8.42714C30.8414 8.42714 31.7653 8.8367 32.4004 9.5388C33.0356 10.2409 33.3821 11.4695 33.3821 13.1076V20.5379H29.8598V13.1662C29.8598 12.4641 29.7443 12.0545 29.4556 11.762C29.1669 11.4695 28.7627 11.3525 28.243 11.3525C27.8965 11.3525 27.6078 11.411 27.3191 11.528C27.0304 11.645 26.7994 11.8205 26.6262 12.0545V20.5965H23.0461V8.71967H26.3952V8.6612ZM20.852 6.43796H17.2142V3.4541H20.852V6.43796ZM20.852 20.5965H17.2142V8.71967H20.852V20.5965ZM9.24573 20.5965V11.2354H7.57119V8.6612H9.24573V7.43255C9.24573 6.08691 9.64991 5.0338 10.4005 4.27323C11.2089 3.51266 12.4216 3.33711 13.2877 3.33711C13.5764 3.33711 15.5974 3.33711 15.5974 3.33711V6.32093C15.5974 6.32093 14.5003 6.32093 14.2693 6.32093C13.8074 6.32093 13.4609 6.43796 13.2299 6.67198C12.999 6.90599 12.8835 7.25704 12.8835 7.72508V8.60268H15.1355V11.1769H12.8835V20.4794H9.24573V20.5965ZM2.31661 4.44873C2.31661 0.879845 4.16436 0.587311 7.28247 0.587311V3.39563C5.8389 3.39563 5.26147 3.62964 5.26147 4.50725V9.12924C5.26147 10.1823 5.31922 11.294 4.45307 11.996C5.31922 12.6981 5.26147 13.7512 5.26147 14.8628V19.4848C5.26147 20.421 5.8389 20.5965 7.28247 20.5965V23.4048C4.16436 23.4048 2.31661 23.1122 2.31661 19.5434V14.8628C2.31661 14.1023 2.31661 13.2832 0.873047 13.2832V12.0545V10.8259C2.31661 10.8259 2.31661 9.94832 2.31661 9.24627V4.44873Z" fill="white"/>
</svg>
