<svg width="137" height="32" viewBox="0 0 137 32" fill="none" xmlns="http://www.w3.org/2000/svg">
<g id="Logo" opacity="0.6">
<path d="M33.1768 7.63501H36.3421V22.952H33.1768V7.63501Z" fill="#1D2130"/>
<path d="M38.1147 17.705C38.1147 16.603 38.4404 15.5258 39.0505 14.61C39.6606 13.6941 40.5276 12.9809 41.5416 12.5606C42.5556 12.1404 43.671 12.032 44.7464 12.2494C45.8218 12.4667 46.8087 12.9999 47.5822 13.7813C48.3556 14.5628 48.8806 15.5573 49.0908 16.6389C49.3009 17.7205 49.1867 18.8405 48.7626 19.8568C48.3385 20.8731 47.6236 21.74 46.7085 22.3476C45.7934 22.9553 44.7193 23.2763 43.6224 23.27C42.8948 23.2757 42.1735 23.1354 41.5006 22.8574C40.8278 22.5793 40.2169 22.1691 39.7039 21.6508C39.1909 21.1325 38.7861 20.5165 38.5132 19.8389C38.2403 19.1613 38.1048 18.4359 38.1147 17.705ZM46.0491 17.705C46.0367 17.2299 45.8851 16.769 45.6133 16.3801C45.3415 15.9911 44.9616 15.6912 44.5211 15.518C44.0805 15.3448 43.599 15.3059 43.1366 15.4062C42.6742 15.5066 42.2514 15.7416 41.9213 16.082C41.5912 16.4224 41.3683 16.853 41.2805 17.32C41.1927 17.787 41.2438 18.2696 41.4276 18.7076C41.6114 19.1455 41.9197 19.5192 42.3138 19.7821C42.7079 20.0449 43.1704 20.1852 43.6435 20.1854C43.9656 20.1917 44.2855 20.1312 44.5832 20.0077C44.881 19.8841 45.1502 19.7002 45.374 19.4674C45.5978 19.2346 45.7714 18.958 45.8839 18.6547C45.9964 18.3515 46.0455 18.0282 46.028 17.705H46.0491Z" fill="#1D2130"/>
<path d="M61.6543 12.458V22.4326C61.6543 25.9518 58.911 27.4464 56.1361 27.4464C55.1573 27.5271 54.1755 27.3317 53.3012 26.8823C52.427 26.4328 51.695 25.7471 51.1876 24.9024L53.857 23.3548C54.0733 23.793 54.4174 24.1545 54.8434 24.3912C55.2695 24.6279 55.7572 24.7286 56.2416 24.6798C56.5502 24.718 56.8633 24.6872 57.1587 24.5896C57.4541 24.4921 57.7243 24.3302 57.9502 24.1154C58.176 23.9007 58.3518 23.6385 58.465 23.3476C58.5782 23.0567 58.626 22.7442 58.605 22.4326V21.468C58.2367 21.9167 57.7693 22.2729 57.24 22.5084C56.7107 22.7439 56.134 22.8523 55.5558 22.8248C54.1566 22.8248 52.8147 22.2664 51.8254 21.2725C50.836 20.2785 50.2802 18.9305 50.2802 17.5248C50.2802 16.1192 50.836 14.7711 51.8254 13.7771C52.8147 12.7832 54.1566 12.2248 55.5558 12.2248C56.134 12.1973 56.7107 12.3057 57.24 12.5412C57.7693 12.7767 58.2367 13.1329 58.605 13.5816V12.5216L61.6543 12.458ZM58.605 17.493C58.6261 16.9859 58.4956 16.484 58.2305 16.0519C57.9654 15.6199 57.5776 15.2774 57.1172 15.0685C56.6567 14.8596 56.1446 14.7938 55.6466 14.8797C55.1486 14.9655 54.6876 15.1991 54.3229 15.5503C53.9581 15.9015 53.7062 16.3542 53.5997 16.8504C53.4931 17.3466 53.5367 17.8634 53.7249 18.3345C53.913 18.8055 54.2371 19.2093 54.6556 19.4938C55.074 19.7783 55.5675 19.9306 56.0728 19.931C56.4024 19.9549 56.7334 19.909 57.0444 19.7963C57.3553 19.6837 57.6392 19.5068 57.8779 19.277C58.1165 19.0473 58.3045 18.7698 58.4298 18.4625C58.555 18.1552 58.6147 17.8249 58.605 17.493Z" fill="#1D2130"/>
<path d="M63.4374 17.705C63.4374 16.6039 63.7626 15.5275 64.3717 14.6121C64.9808 13.6968 65.8466 12.9835 66.8594 12.5626C67.8722 12.1417 68.9865 12.0321 70.0613 12.2477C71.1361 12.4633 72.1231 12.9944 72.8974 13.7737C73.6717 14.5531 74.1984 15.5456 74.4109 16.6258C74.6235 17.706 74.5123 18.8253 74.0914 19.842C73.6705 20.8587 72.9589 21.7271 72.0466 22.3373C71.1342 22.9475 70.0622 23.2721 68.9662 23.27C68.2373 23.2771 67.5143 23.1379 66.8396 22.8606C66.165 22.5834 65.5522 22.1735 65.0372 21.6552C64.5223 21.1369 64.1155 20.5205 63.8408 19.8422C63.5661 19.1639 63.429 18.4373 63.4374 17.705ZM71.3719 17.705C71.3594 17.2295 71.2075 16.7682 70.9353 16.379C70.663 15.9898 70.2825 15.69 69.8413 15.5171C69.4002 15.3442 68.9181 15.3059 68.4554 15.4071C67.9927 15.5083 67.5701 15.7444 67.2404 16.0858C66.9107 16.4273 66.6886 16.8589 66.602 17.3265C66.5154 17.7942 66.5681 18.2772 66.7535 18.7149C66.9389 19.1526 67.2487 19.5257 67.6442 19.7872C68.0397 20.0488 68.5032 20.1873 68.9768 20.1854C69.2988 20.1917 69.6188 20.1312 69.9165 20.0077C70.2143 19.8841 70.4835 19.7002 70.7073 19.4674C70.9311 19.2346 71.1046 18.958 71.2172 18.6547C71.3297 18.3515 71.3788 18.0282 71.3613 17.705H71.3719Z" fill="#1D2130"/>
<path d="M75.9617 9.64896C75.9617 9.27578 76.0718 8.91099 76.2782 8.6007C76.4846 8.29042 76.7779 8.04859 77.1211 7.90578C77.4642 7.76297 77.8419 7.72561 78.2062 7.79841C78.5705 7.87121 78.9051 8.05091 79.1678 8.31479C79.4304 8.57866 79.6093 8.91485 79.6818 9.28086C79.7542 9.64686 79.7171 10.0262 79.5749 10.371C79.4328 10.7158 79.192 11.0104 78.8832 11.2178C78.5743 11.4251 78.2112 11.5358 77.8398 11.5358C77.3434 11.5302 76.8688 11.3297 76.5178 10.977C76.1668 10.6244 75.9672 10.1477 75.9617 9.64896ZM76.2677 12.458H79.433V22.952H76.2677V12.458Z" fill="#1D2130"/>
<path d="M92.9806 17.705C93.0161 18.4029 92.9138 19.101 92.6797 19.7591C92.4456 20.4171 92.0843 21.0222 91.6165 21.5394C91.1487 22.0566 90.5838 22.4758 89.9541 22.7728C89.3245 23.0698 88.6426 23.2388 87.9477 23.27C87.358 23.3094 86.7671 23.2146 86.219 22.9925C85.6709 22.7704 85.1798 22.4268 84.7824 21.9874V27.1708H81.617V12.458H84.7824V13.4438C85.1803 13.0057 85.6718 12.6637 86.22 12.4435C86.7681 12.2232 87.3588 12.1303 87.9477 12.1718C88.6398 12.2031 89.319 12.3711 89.9465 12.6661C90.574 12.9611 91.1375 13.3774 91.6049 13.8912C92.0722 14.4051 92.4342 15.0063 92.6703 15.6607C92.9063 16.3151 93.0118 17.0097 92.9806 17.705ZM89.8153 17.705C89.8028 17.2127 89.646 16.735 89.3644 16.3319C89.0829 15.9287 88.6892 15.618 88.2326 15.4387C87.776 15.2594 87.2769 15.2195 86.7979 15.324C86.3188 15.4284 85.8811 15.6726 85.5396 16.0259C85.1981 16.3792 84.968 16.8259 84.8781 17.3101C84.7883 17.7942 84.8426 18.2942 85.0344 18.7474C85.2262 19.2006 85.5469 19.5869 85.9563 19.8578C86.3657 20.1287 86.8455 20.2722 87.3357 20.2702C87.6715 20.2845 88.0065 20.2274 88.3187 20.1025C88.631 19.9777 88.9134 19.7879 89.1475 19.5457C89.3817 19.3035 89.5622 19.0143 89.6773 18.6971C89.7923 18.3799 89.8394 18.0418 89.8153 17.705Z" fill="#1D2130"/>
<path d="M102.614 19.8038C102.614 22.2206 100.504 23.2488 98.2667 23.2488C97.3544 23.3313 96.4384 23.137 95.6371 22.6911C94.8359 22.2451 94.1861 21.568 93.7719 20.7472L96.4941 19.1996C96.602 19.5778 96.8358 19.9074 97.1566 20.1331C97.4773 20.3589 97.8655 20.4671 98.2562 20.4398C99.0053 20.4398 99.3851 20.2066 99.3851 19.7826C99.3851 18.6272 94.2467 19.242 94.2467 15.6062C94.2467 13.3166 96.167 12.1718 98.3406 12.1718C99.1668 12.1346 99.9876 12.3229 100.716 12.7167C101.444 13.1105 102.053 13.6951 102.477 14.4084L99.7544 15.85C99.6342 15.5765 99.4377 15.3439 99.1886 15.1803C98.9396 15.0166 98.6487 14.9289 98.3511 14.9278C97.8025 14.9278 97.4754 15.1398 97.4754 15.5108C97.4754 16.7192 102.614 15.9242 102.614 19.8038Z" fill="#1D2130"/>
<path d="M114.083 12.458V22.952H110.917V21.9662C110.558 22.4026 110.101 22.7479 109.584 22.9744C109.068 23.2009 108.505 23.3022 107.942 23.27C105.832 23.27 104.028 21.7542 104.028 18.924V12.458H107.193V18.447C107.168 18.6974 107.198 18.9503 107.279 19.1881C107.361 19.4259 107.494 19.643 107.667 19.8244C107.841 20.0058 108.051 20.1472 108.285 20.2388C108.518 20.3304 108.768 20.3701 109.018 20.355C110.158 20.355 110.96 19.6766 110.96 18.235V12.458H114.083Z" fill="#1D2130"/>
<path d="M132.02 16.5072V22.952H128.854V16.7828C128.854 15.7228 128.358 15.0656 127.356 15.0656C126.354 15.0656 125.721 15.797 125.721 17.0372V22.952H122.555V16.7828C122.555 15.7228 122.059 15.0656 121.057 15.0656C120.055 15.0656 119.422 15.797 119.422 17.0372V22.952H116.256V12.458H119.422V13.4226C119.749 12.9964 120.178 12.6589 120.668 12.4406C121.157 12.2222 121.694 12.1298 122.228 12.1718C122.764 12.1437 123.297 12.256 123.776 12.4976C124.255 12.7392 124.664 13.1018 124.961 13.5498C125.309 13.0817 125.769 12.7098 126.298 12.4689C126.828 12.2279 127.41 12.1257 127.989 12.1718C130.458 12.1718 132.02 13.889 132.02 16.5072Z" fill="#1D2130"/>
<path d="M14.3219 4.87902V0.374023H0.18335V31.326H14.3219V26.821C11.4256 26.821 8.64794 25.6651 6.59997 23.6077C4.55199 21.5502 3.40145 18.7597 3.40145 15.85C3.40145 12.9403 4.55199 10.1498 6.59997 8.09235C8.64794 6.03489 11.4256 4.87902 14.3219 4.87902Z" fill="#1D2130"/>
<path d="M14.3219 4.87902V26.821C17.2182 26.821 19.9957 25.6652 22.0437 23.6077C24.0917 21.5502 25.2422 18.7597 25.2422 15.85C25.2422 12.9403 24.0917 10.1498 22.0437 8.09236C19.9957 6.03489 17.2182 4.87902 14.3219 4.87902Z" fill="#1D2130"/>
<path d="M134.679 12.3944C135.961 12.3944 137 11.3503 137 10.0624C137 8.77447 135.961 7.73039 134.679 7.73039C133.397 7.73039 132.357 8.77447 132.357 10.0624C132.357 11.3503 133.397 12.3944 134.679 12.3944Z" fill="#1D2130"/>
</g>
</svg>
