<svg width="64" height="65" viewBox="0 0 64 65" fill="none" xmlns="http://www.w3.org/2000/svg">
<g id="Play icon">
<g id="Vector" filter="url(#filter0_b_604_51)">
<path d="M0 32.1711C0 14.498 14.3269 0.171143 32 0.171143C49.6731 0.171143 64 14.498 64 32.1711C64 49.8443 49.6731 64.1711 32 64.1711C14.3269 64.1711 0 49.8443 0 32.1711Z" fill="white"/>
</g>
<path id="Vector_2" d="M23.9805 36.7428V27.3179C23.9805 23.3001 23.9805 21.2912 25.289 20.5168C26.5976 19.7424 28.3586 20.7092 31.8805 22.6428L39.959 27.0781C43.5283 29.0377 45.3129 30.0175 45.3522 31.5493C45.3914 33.0811 43.6592 34.151 40.1949 36.2907L32.1164 41.2804C28.5161 43.5041 26.716 44.6159 25.3482 43.8531C23.9805 43.0903 23.9805 40.9744 23.9805 36.7428Z" fill="#1D2130"/>
</g>
<defs>
<filter id="filter0_b_604_51" x="-80" y="-79.8289" width="224" height="224" filterUnits="userSpaceOnUse" color-interpolation-filters="sRGB">
<feFlood flood-opacity="0" result="BackgroundImageFix"/>
<feGaussianBlur in="BackgroundImageFix" stdDeviation="40"/>
<feComposite in2="SourceAlpha" operator="in" result="effect1_backgroundBlur_604_51"/>
<feBlend mode="normal" in="SourceGraphic" in2="effect1_backgroundBlur_604_51" result="shape"/>
</filter>
</defs>
</svg>
