<svg width="32" height="32" viewBox="0 0 32 32" fill="none" xmlns="http://www.w3.org/2000/svg">
<path opacity="0.4" d="M21.7058 2H26.4462C28.4093 2 30.0001 3.6042 30.0001 5.58396V10.3644C30.0001 12.3441 28.4093 13.9483 26.4462 13.9483H21.7058C19.7426 13.9483 18.1519 12.3441 18.1519 10.3644V5.58396C18.1519 3.6042 19.7426 2 21.7058 2" fill="#716FE7"/>
<path fill-rule="evenodd" clip-rule="evenodd" d="M5.55394 2H10.2943C12.2575 2 13.8482 3.6042 13.8482 5.58396V10.3644C13.8482 12.3441 12.2575 13.9483 10.2943 13.9483H5.55394C3.59076 13.9483 2 12.3441 2 10.3644V5.58396C2 3.6042 3.59076 2 5.55394 2ZM5.55394 18.0517H10.2943C12.2575 18.0517 13.8482 19.6559 13.8482 21.6357V26.416C13.8482 28.3945 12.2575 30 10.2943 30H5.55394C3.59076 30 2 28.3945 2 26.416V21.6357C2 19.6559 3.59076 18.0517 5.55394 18.0517ZM26.4462 18.0517H21.7058C19.7426 18.0517 18.1519 19.6559 18.1519 21.6357V26.416C18.1519 28.3945 19.7426 30 21.7058 30H26.4462C28.4093 30 30.0001 28.3945 30.0001 26.416V21.6357C30.0001 19.6559 28.4093 18.0517 26.4462 18.0517Z" fill="#716FE7"/>
</svg>
