<svg width="32" height="32" viewBox="0 0 32 32" fill="none" xmlns="http://www.w3.org/2000/svg">
<path opacity="0.4" d="M22.5301 29.9856H9.46883C7.4437 30.1114 5.45493 29.4094 3.95846 28.0416C2.59066 26.5437 1.88858 24.555 2.01445 22.5313V9.46875C1.88858 7.44504 2.58926 5.45629 3.95706 3.95844C5.45493 2.59065 7.4437 1.88858 9.46883 2.01445H22.5301C24.5524 1.88858 26.5398 2.58925 28.0362 3.95704C29.4026 5.45629 30.1061 7.44364 29.9858 9.46875V22.5313C30.1103 24.555 29.4096 26.5437 28.0418 28.0416C26.544 29.4094 24.5552 30.1114 22.5301 29.9856" fill="#716FE7"/>
<path d="M23.0764 13.7566L13.9025 22.9761C13.4254 23.4405 12.7983 23.7 12.144 23.7H8.94066C8.76345 23.7 8.59988 23.6317 8.4772 23.5088C8.35451 23.3858 8.29999 23.2219 8.29999 23.0444L8.38178 19.8073C8.39541 19.1654 8.6544 18.5644 9.10424 18.1136L15.6064 11.5985C15.7154 11.4893 15.9063 11.4893 16.0153 11.5985L18.2958 13.8699C18.4458 14.0188 18.6639 14.1158 18.8956 14.1158C19.4 14.1158 19.7953 13.706 19.7953 13.2143C19.7953 12.9685 19.6999 12.7499 19.5499 12.586C19.509 12.5314 17.3376 10.3693 17.3376 10.3693C17.2012 10.2327 17.2012 10.0005 17.3376 9.86389L18.2509 8.93511C19.096 8.08828 20.4591 8.08828 21.3043 8.93511L23.0764 10.7107C23.9079 11.5439 23.9079 12.9097 23.0764 13.7566" fill="#716FE7"/>
</svg>
