<svg width="32" height="32" viewBox="0 0 32 32" fill="none" xmlns="http://www.w3.org/2000/svg">
<path opacity="0.4" d="M22.0659 30H9.93266C5.18765 30 2 26.672 2 21.718V10.2834C2 5.32936 5.18765 2 9.93266 2H22.0673C26.8123 2 30 5.32936 30 10.2834V21.718C30 26.672 26.8123 30 22.0659 30" fill="#716FE7"/>
<path fill-rule="evenodd" clip-rule="evenodd" d="M14.9429 11.345C14.9429 13.263 13.3819 14.824 11.4639 14.824C9.54452 14.824 7.98492 13.263 7.98492 11.345C7.98492 9.42696 9.54452 7.86456 11.4639 7.86456C13.3819 7.86456 14.9429 9.42696 14.9429 11.345ZM26.3606 18.9226C26.6868 19.239 26.9206 19.6002 27.0746 19.9852C27.5408 21.15 27.2986 22.55 26.8002 23.7036C26.2094 25.077 25.0782 26.1144 23.653 26.568C23.0202 26.771 22.3566 26.8578 21.6944 26.8578H9.96096C8.79336 26.8578 7.76016 26.5862 6.91316 26.0766C6.38256 25.7574 6.28876 25.0224 6.68216 24.5436C7.34016 23.7456 7.98976 22.9448 8.64496 22.137C9.89376 20.5914 10.7352 20.1434 11.6704 20.5368C12.0498 20.6992 12.4306 20.9442 12.8226 21.2018C13.867 21.8934 15.3188 22.8426 17.2312 21.8122C18.5384 21.0974 19.2972 19.8742 19.9577 18.8096L19.971 18.7882C20.0154 18.7169 20.0595 18.6457 20.1034 18.5747C20.328 18.2118 20.5492 17.8544 20.7998 17.5254C21.1106 17.118 22.2642 15.844 23.7552 16.7512C24.7058 17.3224 25.5052 18.0952 26.3606 18.9226Z" fill="#716FE7"/>
</svg>
